<svg width="845" height="956" viewBox="0 0 845 956" fill="none" xmlns="http://www.w3.org/2000/svg">
<path fill-rule="evenodd" clip-rule="evenodd" d="M40.8032 40.9091H0.803223V956H226.53V916H266.53V590.677H578.751V956H804.033V916H844.033V0.909058H618.751V40.9091H578.751V365.788H266.53V0.909058H40.8032V40.9091ZM40.8032 916H223.53V953H3.80322V43.9091H40.8032V916ZM43.8032 43.9091V913H223.53V587.677H263.53V547.677H621.751V913H801.033V43.9091H621.751V368.788H581.751V408.788H223.53V43.9091H43.8032ZM578.751 368.788V405.788H226.53V40.9091H43.8032V3.90906H263.53V368.788H578.751ZM581.751 365.788H618.751V43.9091H581.751V365.788ZM621.751 40.9091H804.033V913H841.033V3.90906H621.751V40.9091ZM801.033 916H618.751V550.677H266.53V587.677H581.751V953H801.033V916ZM263.53 590.677H226.53V913H263.53V590.677Z" fill="black"/>
</svg>
